<?xml version="1.0" encoding="UTF-8" standalone="no"?>
<!-- Created with Inkscape (http://www.inkscape.org/) -->
<svg
   xmlns:svg="http://www.w3.org/2000/svg"
   xmlns="http://www.w3.org/2000/svg"
   version="1.0"
   width="400"
   height="177"
   id="svg2">
  <defs
     id="defs5" />
  <path
     d="M 0,0 L 400,0 L 400,177 L 0,177 L 0,0 z M 378,22 L 22,22 L 22,155 L 378,155 L 378,22 z M 48.6967,131.36337 L 48,46 L 73.221792,46 L 131.03161,97 L 132,46 L 156,46 L 156,132 L 131.99081,132 L 73.5,79.071108 L 73,105.28555 L 72.5,131.5 L 48.6967,131.36337 z M 188,46 L 212,46 L 212,132 L 188,132 L 188,46 z M 244,46 L 268,46 L 267.81005,96.848255 L 326.5,46.034523 L 352.02147,46 L 351.5,131.5 L 327.5,131.5 L 326.5,78.930011 L 267.80003,132 L 244,132 L 244,46 z "
     style="fill:#FFFFFF"
     id="path2161" />
</svg>
